<svg viewBox="0 0 282.69 52" xmlns="http://www.w3.org/2000/svg"><g fill="#fff" transform="translate(-818.42 -514.41)"><path d="m883.49 527.94h6.43l3.38 16.06 3.65-16.1h4.85l3.65 16.17 3.38-16.17h6.4l-6.56 24.77h-5.56l-3.78-16-3.72 16h-5.73zm36.51 17.41c.23 2 2.1 3.28 4.28 3.28a3.75 3.75 0 0 0 3.38-1.74h5.69a10.8 10.8 0 0 1 -3.78 4.75 9.06 9.06 0 0 1 -5.29 1.68 9.91 9.91 0 0 1 -.1-19.82 9.55 9.55 0 0 1 7 2.94 10.39 10.39 0 0 1 2.61 8.91zm8.37-4.22a4.41 4.41 0 0 0 -8.31 0zm8.7-13.19h5.55v7.67a7.21 7.21 0 0 1 5.38-2.11c3.89 0 9.15 2.78 9.15 9.81 0 6.69-4.66 10-9.39 10a6.21 6.21 0 0 1 -5.39-2.61v2h-5.31zm14.53 15.45a4.59 4.59 0 1 0 -9.18 0 4.52 4.52 0 0 0 4.52 4.79 4.65 4.65 0 0 0 4.66-4.76zm8.43-8.22a7.18 7.18 0 0 1 3-6.06 9.65 9.65 0 0 1 5.46-1.64c4.82 0 7.77 3.28 7.77 6.76a5.58 5.58 0 0 1 -3.28 5.19c4.65 1.58 4.65 5.16 4.65 6 0 4.32-4.18 7.76-9.17 7.76-2.88 0-6.13-1.1-7.74-3.47a9.42 9.42 0 0 1 -1.37-4.38h6.38a2.73 2.73 0 0 0 2.84 2.31 2.53 2.53 0 0 0 2.71-2.78c0-2.35-2.41-2.52-3.31-2.52h-2.24v-4.66h1.07c.57 0 3.12 0 3.12-2.47 0-1.08-.5-2.18-1.74-2.18-1.85 0-1.9 1.54-1.94 2.14zm38.63 1.07a6.77 6.77 0 0 0 -1.3-1.67 6.17 6.17 0 0 0 -4.15-1.54 6.8 6.8 0 0 0 -6.77 7.2c0 5.19 3.69 7.43 6.8 7.43a6.64 6.64 0 0 0 3.89-1.11 5 5 0 0 0 2-2.88h-7.4v-5h14.7a16 16 0 0 1 -1.14 7.1c-2.42 5.45-8 7.5-12.06 7.5a13 13 0 0 1 -13.15-13c0-7.4 6-12.76 13.24-12.76 5.93 0 11 4 12.39 8.77zm30.4 16.47h-5.56v-2c-1 1.81-3.31 2.64-5.49 2.64-5.89 0-9.34-4.62-9.34-9.94 0-6.09 4.39-9.91 9.34-9.91a6.25 6.25 0 0 1 5.49 2.61v-2h5.56zm-14.82-9.21a4.62 4.62 0 0 0 4.62 4.66 4.31 4.31 0 0 0 3.88-2.08 5 5 0 0 0 .77-2.38 4.69 4.69 0 0 0 -.47-2.44 4.42 4.42 0 0 0 -4.22-2.58 4.59 4.59 0 0 0 -4.58 4.79zm18.87-9.37h5.19v2a4.34 4.34 0 0 1 1.14-1.31 6.16 6.16 0 0 1 4-1.3 5.66 5.66 0 0 1 4.24 1.77 6.37 6.37 0 0 1 1.1 1.54 8.25 8.25 0 0 1 1.34-1.6 6.62 6.62 0 0 1 4.56-1.71 6.76 6.76 0 0 1 4.88 1.87c1.75 1.84 2 3.08 2 7.2v10.14h-5.54v-9.87a6.53 6.53 0 0 0 -.37-2.61 2.42 2.42 0 0 0 -2.48-1.51 2.63 2.63 0 0 0 -2.68 1.54 5.37 5.37 0 0 0 -.4 2.31v10.14h-5.56v-10.11a6.25 6.25 0 0 0 -.33-2.31 2.41 2.41 0 0 0 -2.45-1.58 2.7 2.7 0 0 0 -2.74 1.64 6.19 6.19 0 0 0 -.4 2.48v9.86h-5.56zm37 11.22a4.05 4.05 0 0 0 4.29 3.28 3.75 3.75 0 0 0 3.38-1.74h5.67a10.8 10.8 0 0 1 -3.78 4.75 9 9 0 0 1 -5.29 1.68 9.91 9.91 0 0 1 -.1-19.82 9.55 9.55 0 0 1 7 2.94 10.39 10.39 0 0 1 2.61 8.91zm8.37-4.22a4.4 4.4 0 0 0 -8.3 0zm16.6-1.77c0-.41-.1-1.41-1.74-1.41-1.17 0-1.57.74-1.57 1.24 0 .84 1.37 1.4 2.83 1.84 3.16.87 6.5 1.81 6.5 5.83s-3.45 6.49-7.57 6.49c-2.81 0-7.06-1.26-7.57-6.16h5.52a2 2 0 0 0 2.11 1.71c1 0 1.94-.54 1.94-1.44 0-1.26-1.37-1.44-4.92-2.81-2.39-.77-4.4-2.35-4.4-4.87 0-3.85 3.35-6.31 7.2-6.31 2.44 0 6.66 1 7.13 5.86zm-261.72-5.45-7.48-13-7.47 13 15 26 11-19.16-7.47-13z"/><path d="m867.18 514.41h-33.71l4.76 8.29h9.23l-2.7 4.7 7.48 13-7.47 13 7.47 13 7.47-13 7.47-13-7.47-13z"/></g></svg>