<svg height="52" width="283" xmlns="http://www.w3.org/2000/svg"><path d="m65.071 13.528h6.427l3.38 16.105 3.649-16.105h4.856l3.647 16.172 3.38-16.17h6.396l-6.562 24.77h-5.557l-3.783-16.04-3.714 16.038h-5.727zm36.523 17.41c.233 1.974 2.106 3.28 4.282 3.28 1.776 0 2.712-.77 3.384-1.74h5.692a10.923 10.923 0 0 1 -3.784 4.755 9.036 9.036 0 0 1 -5.292 1.674c-5.433-.009-9.835-4.412-9.842-9.845 0-5.187 4.084-9.974 9.745-9.974a9.501 9.501 0 0 1 7.029 2.945c2.343 2.523 3.046 5.49 2.61 8.905zm8.37-4.219c-.136-.87-1.262-2.945-4.154-2.945s-4.017 2.075-4.15 2.945h8.303zm8.703-13.191h5.556v7.67c1.974-2.11 4.62-2.11 5.39-2.11 3.884 0 9.144 2.778 9.144 9.807-.006 6.698-4.66 10.034-9.39 10.034-2.612 0-4.62-1.261-5.39-2.611v1.98h-5.31zm14.527 15.452c0-2.378-1.806-4.69-4.553-4.69-2.945 0-4.62 2.379-4.62 4.69 0 2.576 1.74 4.787 4.519 4.787 2.838 0 4.654-2.312 4.654-4.755zm8.436-8.221c.066-2.977 1.34-4.888 3.011-6.058a9.583 9.583 0 0 1 5.459-1.64c4.822 0 7.767 3.28 7.767 6.761 0 3.416-2.378 4.69-3.28 5.191 4.652 1.577 4.652 5.156 4.652 5.991 0 4.32-4.185 7.767-9.174 7.767-2.879 0-6.127-1.103-7.732-3.468-1.104-1.609-1.261-3.47-1.372-4.387h6.38c.135.571.57 2.277 2.838 2.312 1.841 0 2.712-1.205 2.712-2.779 0-2.346-2.413-2.522-3.315-2.522h-2.235v-4.655h1.072c.57 0 3.112 0 3.112-2.478 0-1.072-.501-2.176-1.74-2.176-1.842 0-1.892 1.539-1.94 2.141zm38.632 1.072a6.893 6.893 0 0 0 -1.305-1.674 6.178 6.178 0 0 0 -4.153-1.54c-3.113 0-6.761 2.312-6.761 7.2 0 5.187 3.683 7.43 6.796 7.43a6.666 6.666 0 0 0 3.885-1.104 5.01 5.01 0 0 0 2.04-2.88h-7.398v-5.045h14.698c.132 1.776-.07 4.686-1.138 7.099-2.413 5.455-7.97 7.499-12.053 7.499-7.499 0-13.159-5.86-13.159-12.99 0-7.4 5.96-12.755 13.244-12.755 5.926 0 11.012 3.983 12.387 8.77zm30.396 16.467h-5.556v-2.008c-1 1.813-3.314 2.639-5.49 2.639-5.894 0-9.34-4.62-9.34-9.943 0-6.092 4.383-9.908 9.34-9.908 3.046 0 4.752 1.473 5.49 2.611v-1.977h5.556zm-14.82-9.208c0 1.706 1.26 4.655 4.619 4.655 1.974 0 3.182-.946 3.885-2.078a5.118 5.118 0 0 0 .77-2.375 4.771 4.771 0 0 0 -.47-2.444c-.603-1.261-1.874-2.58-4.22-2.58-3.178 0-4.585 2.681-4.585 4.788v.034zm18.869-9.368h5.19v1.977a4.326 4.326 0 0 1 1.14-1.306c.803-.671 2.109-1.305 4.048-1.305a5.676 5.676 0 0 1 4.245 1.772 6.32 6.32 0 0 1 1.103 1.542 7.606 7.606 0 0 1 1.34-1.608 6.594 6.594 0 0 1 4.551-1.706c1.306 0 3.384.315 4.888 1.873 1.744 1.841 2.009 3.08 2.009 7.2v10.137h-5.547v-9.87c0-.772 0-1.775-.37-2.61-.368-.837-1.037-1.508-2.475-1.508-1.542 0-2.311.703-2.68 1.539a5.342 5.342 0 0 0 -.4 2.311v10.138h-5.557v-10.09a6.307 6.307 0 0 0 -.337-2.309c-.366-.87-1.038-1.577-2.444-1.577-1.577 0-2.343.735-2.744 1.64a6.124 6.124 0 0 0 -.4 2.479v9.857h-5.56zm36.993 11.216c.234 1.974 2.11 3.28 4.286 3.28 1.772 0 2.712-.77 3.38-1.74h5.676a10.923 10.923 0 0 1 -3.784 4.755 9.033 9.033 0 0 1 -5.288 1.674 9.86 9.86 0 0 1 -9.845-9.845c0-5.187 4.1-9.974 9.744-9.974a9.501 9.501 0 0 1 7.029 2.945c2.343 2.523 3.046 5.49 2.611 8.905zm8.37-4.219c-.136-.87-1.262-2.945-4.154-2.945-2.891 0-4.017 2.075-4.15 2.945h8.303zm16.602-1.772c-.031-.404-.1-1.407-1.74-1.407-1.17 0-1.577.735-1.577 1.24 0 .835 1.372 1.403 2.838 1.838 3.153.87 6.493 1.81 6.493 5.828 0 4.083-3.447 6.493-7.568 6.493-2.813 0-7.064-1.262-7.569-6.16h5.522c.236 1.707 1.892 1.707 2.11 1.707.946 0 1.942-.536 1.942-1.438 0-1.261-1.372-1.441-4.922-2.813-2.39-.766-4.4-2.343-4.4-4.866 0-3.85 3.35-6.307 7.197-6.307 2.444 0 6.663.972 7.133 5.86zm-261.728-5.447-7.474-12.997-7.47 12.998 14.944 26 11.016-19.161-7.474-13.002z"/><path d="m48.758 0h-33.71l4.762 8.284-.01.016h9.243l-2.7 4.702 7.472 12.998-7.47 12.998 7.469 13.002 7.474-13.002 7.47-12.998-7.47-12.998z"/></svg>