<svg height="79" viewBox="0 0 104.237 79" width="104.237" xmlns="http://www.w3.org/2000/svg"><g fill="#fff"><path d="m1499.687 692.333h-19.352a.488.488 0 0 0 -.489.488v25.679a.482.482 0 0 1 -.1.3l-19.871 25.1a.488.488 0 0 1 -.87-.3v-77.112a.488.488 0 0 1 .487-.488h20.124a.487.487 0 0 1 .382.185l20.075 25.358a.488.488 0 0 1 -.381.79z" transform="translate(-1459 -666)"/><path d="m1867.283 692.5v26a.492.492 0 0 1 -.1.3l-20.6 26.015a.488.488 0 0 1 -.383.185h-20.37a.485.485 0 0 1 -.382-.185l-20.075-25.358a.488.488 0 0 1 .383-.791h40.2a.489.489 0 0 0 .49-.488v-25.357a.489.489 0 0 0 -.49-.488h-20.123a.487.487 0 0 1 -.382-.185l-20.075-25.358a.488.488 0 0 1 .383-.79h40.45a.491.491 0 0 1 .383.185l20.595 26.016a.491.491 0 0 1 .1.3z" transform="translate(-1763.046 -666)"/></g></svg>