<svg enable-background="new 0 0 103 32" viewBox="0 0 103 32" xmlns="http://www.w3.org/2000/svg"><path d="m99.2 32h-95.8c-1.8 0-3.2-1.4-3.2-3.2v-25.6c0-1.8 1.4-3.2 3.2-3.2h95.8c1.8 0 3.2 1.4 3.2 3.2v25.6c0 1.8-1.5 3.2-3.2 3.2z"/><g fill="#fff"><path d="m21.7 15.8c0-2.5 2.1-3.7 2.2-3.8-1.2-1.7-3-1.9-3.6-2-1.5-.2-3 .9-3.8.9s-2-.9-3.3-.9c-1.7 0-3.2 1-4.1 2.5-1.8 3-.5 7.5 1.2 10 .9 1.2 1.8 2.6 3.1 2.5s1.8-.8 3.3-.8 1.9.8 3.3.8 2.2-1.2 3-2.4c1-1.4 1.4-2.7 1.4-2.8 0 0-2.7-1-2.7-4z"/><path d="m19.2 8.5c.6-.9 1.1-2 1-3.2-1 .1-2.2.6-2.9 1.5-.6.7-1.2 1.9-1 3 1.1.1 2.2-.5 2.9-1.3z"/><path d="m39.9 24.9h-1.8l-1-3h-3.4l-.9 3h-1.7l3.4-10.3h2.1zm-3-4.3-.9-2.8c-.1-.2-.2-1-.6-1.9-.1.4-.2 1.1-.5 1.9l-.9 2.7h2.9z"/><path d="m48.5 21.1c0 1.3-.3 2.2-1 3-.6.6-1.4 1-2.3 1s-1.7-.3-2.1-1v3.9h-1.7v-8c0-.8 0-1.6-.1-2.5h1.4l.1 1.2c.6-.9 1.4-1.4 2.5-1.4.9 0 1.6.3 2.2 1s1 1.6 1 2.8zm-1.7 0c0-.7-.2-1.4-.5-1.8-.3-.5-.8-.7-1.4-.7-.4 0-.8.2-1.1.4s-.6.6-.6 1c-.2.3-.2.5-.2.6v1.3c0 .6.2 1 .5 1.4s.8.6 1.3.6c.6 0 1.1-.2 1.4-.7.4-.6.6-1.3.6-2.1z"/><path d="m57 21.1c0 1.3-.3 2.2-1 3-.6.6-1.4 1-2.3 1-1 0-1.7-.3-2.1-1v3.9h-1.7v-8c0-.8 0-1.6-.1-2.5h1.4l.1 1.2c.6-.9 1.4-1.4 2.5-1.4.9 0 1.6.3 2.2 1 .7.7 1 1.6 1 2.8zm-1.7 0c0-.7-.2-1.4-.5-1.8-.3-.5-.8-.7-1.4-.7-.4 0-.8.2-1.1.4s-.6.6-.6 1c-.1.2-.1.4-.1.5v1.3c0 .6.2 1 .5 1.4s.8.6 1.3.6c.6 0 1.1-.2 1.4-.7.4-.5.5-1.2.5-2z"/><path d="m66.6 22c0 .9-.3 1.6-.9 2.2s-1.6.9-2.8.9c-1.1 0-2-.2-2.6-.6l.4-1.4c.7.4 1.5.6 2.4.6.6 0 1.1-.2 1.4-.4.3-.3.5-.6.5-1.1 0-.4-.2-.8-.4-1-.3-.3-.8-.6-1.4-.8-1.8-.6-2.7-1.7-2.7-3 0-.9.3-1.5 1-2.1s1.4-.8 2.6-.8c1 0 1.7.2 2.3.5l-.4 1.4c-.6-.3-1.2-.5-2-.5-.6 0-1 .2-1.4.4-.2.2-.4.6-.4 1s.2.7.5 1c.2.2.8.5 1.5.8.9.3 1.5.8 2 1.3.2.3.4.9.4 1.6z"/><path d="m72 18.7h-1.8v3.6c0 .9.3 1.4 1 1.4.3 0 .6 0 .7-.1l.1 1.3c-.4.1-.8.1-1.3.1-.6 0-1.2-.2-1.5-.6-.4-.4-.6-1-.6-2v-3.8h-1.1v-1.3h1.1v-1.4l1.6-.5v1.8h1.8z"/><path d="m80.2 21.1c0 1.1-.3 2.1-1 2.8s-1.6 1.1-2.7 1.1-2-.4-2.6-1.1-1-1.6-1-2.7.3-2.1 1-2.8c.6-.7 1.6-1.1 2.7-1.1s2 .4 2.6 1.1c.7.7 1 1.6 1 2.7zm-1.7.1c0-.7-.2-1.3-.5-1.8-.3-.6-.9-.9-1.5-.9s-1.2.3-1.5.9c-.3.5-.5 1.1-.5 1.8s.2 1.3.5 1.8c.3.6.9.9 1.5.9s1.1-.3 1.5-.9c.3-.5.5-1.2.5-1.8z"/><path d="m85.6 18.9c-.2 0-.3-.1-.6-.1-.6 0-1 .2-1.4.6-.2.4-.4.9-.4 1.4v3.9h-1.7v-5.1c0-.9 0-1.6-.1-2.3h1.6l.1 1.4h.1c.2-.5.5-.9.8-1.2.4-.2.8-.4 1.2-.4h.4z"/><path d="m92.9 20.8c0 .3 0 .6-.1.7h-5c0 .7.2 1.3.7 1.7.4.3 1 .6 1.6.6.7 0 1.4-.1 2-.3l.2 1.1c-.6.3-1.4.4-2.3.4-1.1 0-2.1-.3-2.7-1-.6-.6-1-1.6-1-2.7s.3-2.1.9-2.8c.6-.8 1.5-1.2 2.6-1.2 1 0 1.9.4 2.4 1.2.6.6.7 1.4.7 2.3zm-1.5-.4c0-.5-.1-.9-.3-1.3-.3-.5-.7-.7-1.3-.7s-1 .2-1.3.6c-.2.3-.4.8-.5 1.3z"/><path d="m36.4 8.2c0 .9-.2 1.6-.8 2.1-.5.4-1.2.6-2.2.6-.5 0-.9 0-1.2-.1v-5c.4-.1.9-.1 1.4-.1.9 0 1.5.2 2 .6.5.5.8 1.1.8 1.9zm-.9 0c0-.6-.2-1-.5-1.4-.3-.3-.8-.5-1.4-.5-.2 0-.5 0-.6.1v3.8h.6c.6 0 1.1-.2 1.4-.5.4-.3.5-.8.5-1.5z"/><path d="m40.9 9c0 .6-.2 1-.5 1.4s-.8.6-1.4.6-1-.2-1.3-.6c-.3-.3-.5-.8-.5-1.4s.2-1 .5-1.4.8-.6 1.4-.6 1 .2 1.3.6.5.9.5 1.4zm-.8 0c0-.3-.1-.6-.2-.9-.2-.3-.4-.4-.7-.4s-.6.2-.7.4c-.2.2-.2.6-.2.9s.1.6.2.9c.2.3.4.4.7.4s.6-.2.7-.5c.1-.1.2-.4.2-.8z"/><path d="m47 7.2-1.1 3.7h-.7l-.5-1.6c-.2-.4-.2-.8-.3-1.2-.1.4-.2.8-.3 1.2l-.5 1.6h-.7l-1.2-3.7h.8l.4 1.8c.1.4.2.8.2 1.2.1-.3.2-.7.3-1.2l.5-1.8h.6l.5 1.7c.2.4.2.8.3 1.2.1-.4.2-.8.2-1.2l.5-1.7z"/><path d="m51.2 10.9h-.8v-2.1c0-.6-.2-1-.7-1-.2 0-.4.1-.6.2s-.2.4-.2.6v2.2h-.8v-2.6c0-.3 0-.6 0-1h.7v.6c.1-.2.2-.3.4-.5s.5-.3.7-.3c.3 0 .6.1.9.3s.4.6.4 1.2z"/><path d="m53.4 10.9h-.8v-5.4h.8z"/><path d="m58.2 9c0 .6-.2 1-.5 1.4s-.8.6-1.4.6-1-.2-1.3-.6c-.3-.3-.5-.8-.5-1.4s.2-1 .5-1.4c.3-.3.8-.6 1.4-.6s1 .2 1.3.6.5.9.5 1.4zm-.8 0c0-.3-.1-.6-.2-.9-.2-.3-.4-.4-.7-.4s-.6.2-.7.4c-.2.2-.2.6-.2.9s.1.6.2.9c.2.3.4.4.7.4s.6-.2.7-.5c.1-.1.2-.4.2-.8z"/><path d="m62.1 10.9h-.7l-.1-.4c-.2.3-.6.5-1 .5-.3 0-.6-.1-.8-.3s-.3-.5-.3-.7c0-.5.2-.8.6-1s.9-.3 1.6-.3v-.2c0-.5-.2-.7-.7-.7-.4 0-.6.1-1 .2l-.2-.6c.3-.2.7-.3 1.3-.3 1 0 1.4.5 1.4 1.5v1.4c-.1.4-.1.6-.1.9zm-.8-1.3v-.6c-.9 0-1.3.3-1.3.8 0 .2.1.3.2.4s.2.2.4.2.3-.1.5-.2.2-.2.3-.4c-.1 0-.1-.1-.1-.2z"/><path d="m66.8 10.9h-.8v-.6c-.2.5-.6.6-1.2.6-.5 0-.8-.2-1.1-.5s-.4-.8-.4-1.4.2-1 .5-1.4c.3-.3.7-.5 1.1-.5.5 0 .8.2 1 .5v-2h.8v4.3zm-.8-1.5v-.7c0-.1 0-.2 0-.2-.1-.2-.2-.3-.3-.5s-.3-.2-.6-.2-.6.2-.7.4-.2.6-.2 1 .1.6.2.9.4.4.7.4c.2 0 .5-.1.6-.3.2-.4.3-.6.3-.8z"/><path d="m73.7 9c0 .6-.2 1-.5 1.4s-.8.6-1.4.6-1-.2-1.3-.6c-.3-.3-.5-.8-.5-1.4s.2-1 .5-1.4.8-.6 1.4-.6 1 .2 1.3.6.5.9.5 1.4zm-.9 0c0-.3-.1-.6-.2-.9-.2-.3-.4-.4-.7-.4s-.6.2-.7.4c-.2.3-.3.6-.3.9s.1.6.2.9c.2.3.4.4.7.4s.6-.2.7-.5c.2-.1.3-.4.3-.8z"/><path d="m78.1 10.9h-.8v-2.1c0-.6-.2-1-.7-1-.2 0-.4.1-.6.2s-.2.4-.2.6v2.2h-.8v-2.6c0-.3 0-.6 0-1h.7v.6c.1-.2.2-.3.4-.5s.5-.3.7-.3c.3 0 .6.1.9.3.3.3.4.7.4 1.3z"/><path d="m83.5 7.8h-.9v1.8c0 .5.2.6.5.6h.4v.6c-.1.2-.4.2-.6.2-.3 0-.6-.1-.7-.3-.2-.2-.2-.6-.2-1v-1.9h-.6v-.6h.6v-.6l.8-.2v.9h.9z"/><path d="m87.8 10.9h-.8v-2.1c0-.6-.2-1-.7-1-.4 0-.6.2-.8.6v.3 2.2h-.8v-5.4h.8v2.2c.2-.4.6-.6 1.1-.6.3 0 .6.1.8.3s.4.7.4 1.2z"/><path d="m92.2 8.9v.4h-2.4c0 .4.2.6.3.8.2.2.5.2.8.2.4 0 .7-.1 1-.2l.2.6c-.3.2-.7.2-1.2.2-.6 0-1-.2-1.4-.5-.3-.2-.5-.7-.5-1.3s.2-1 .5-1.4.7-.6 1.3-.6 1 .2 1.2.6c.1.3.2.7.2 1.2zm-.7-.3c0-.2-.1-.5-.2-.6-.2-.2-.3-.3-.6-.3-.2 0-.5.1-.6.3-.2.2-.2.4-.2.6z"/></g></svg>