<svg height="57" viewBox="0 0 187 57" width="187" xmlns="http://www.w3.org/2000/svg"><g fill="none" fill-rule="evenodd"><path d="m179.771865 57h-172.54334255c-3.99235186 0-7.22852245-3.2437426-7.22852245-7.24534v-42.50970841c0-4.00120895 3.23617059-7.24495159 7.22852245-7.24495159h172.54334255c3.991964 0 7.228135 3.24374264 7.228135 7.24495159v42.50970841c0 4.0015974-3.236171 7.24534-7.228135 7.24534" fill="#17f095"/><g fill="#000"><path d="m57.8762606 15.9143081-2.3827436-5.194261-2.3697776 5.194261zm.2460381.5528499h-5.2575635l-1.1524737 2.532842h-.7122615l4.1697618-9h.6604764l4.1697618 9h-.7122615z"/><path d="m66 12-3.1647368 7h-.6839533l-3.1513099-7h.7107251l2.7892749 6.2624211 2.8160468-6.2624211z"/><path d="m70.323086 18.0622855c.429207-.2641632.7522355-.6471836.9693444-1.1490612v-1.294367h-2.5188267c-.7265764 0-1.2523723.1234535-1.5778197.3698767-.3254475.2465845-.4882144.5856584-.4882144 1.0169796 0 .4489806.1790954.8035365.5377183 1.063184.3584501.2598088.8632522.3896325 1.5141471.3896325.6131406 0 1.1342712-.1320815 1.563651-.3962446m.9410935-5.4084899c.4903742.4358369.7358205 1.0764083.7358205 1.9217141v4.3716738h-.6793186v-1.2283262c-.2358566.4051146-.580138.7198364-1.0329307.9444073-.4527927.2244903-.9954355.3367354-1.62741.3367354-.8207462 0-1.4693948-.1803018-1.9456868-.5414699-.4764647-.3610068-.7146539-.8364359-.7146539-1.4264485 0-.5722728.2193552-1.0367354.6580656-1.3933879.4387105-.3565718 1.1391093-.5348577 2.1013694-.5348577h2.5329954v-.5547748c0-.6425873-.1863526-1.1313213-.5589713-1.4659602-.3727916-.3345582-.9175942-.5019583-1.634408-.5019583-.4906334 0-.9600138.0792651-1.4079684.2377952-.4482138.1584495-.8278305.3697961-1.1391093.6338786l-.3537848-.4754291c.3678671-.3081097.8112428-.548082 1.3301271-.7198364.5187116-.1716738 1.0613544-.257551 1.6273237-.257551.9150024 0 1.6178203.2179588 2.1085401.6537956"/><path d="m75.1950711 19h.6097833v-7.1506829h-.6097833zm-.0486933-9.04791376c-.09761-.10487668-.1463778-.23501074-.1463778-.39040219 0-.15522418.0487678-.28769999.1463778-.39726016.0975355-.1096438.2152483-.16442389.3536594-.16442389.1381133 0 .2560495.05268924.3536595.15756592.0975355.10512759.1463033.23526165.1463033.3904022 0 .15539145-.0487678.28769999-.1463033.39726016-.09761.10956012-.2155462.16434022-.3536595.16434022-.1384111 0-.2561239-.0523547-.3536594-.15748226z"/><path d="m77 19h1v-10h-1z"/><path d="m84.323086 18.0622855c.429207-.2641632.7522355-.6471836.9693444-1.1490612v-1.294367h-2.5188267c-.7265764 0-1.2523723.1234535-1.5778197.3698767-.3254475.2465845-.4882144.5856584-.4882144 1.0169796 0 .4489806.1790954.8035365.5377183 1.063184.3584501.2598088.8632522.3896325 1.5141471.3896325.6131406 0 1.1342712-.1320815 1.563651-.3962446m.9410935-5.4084899c.4903742.4358369.7358205 1.0764083.7358205 1.9217141v4.3716738h-.6793186v-1.2283262c-.2358566.4051146-.580138.7198364-1.0329307.9444073-.4527927.2244903-.9954355.3367354-1.62741.3367354-.8207462 0-1.4693948-.1803018-1.9456868-.5414699-.4764647-.3610068-.7146539-.8364359-.7146539-1.4264485 0-.5722728.2193552-1.0367354.6580656-1.3933879.4387105-.3565718 1.1391093-.5348577 2.1013694-.5348577h2.5329954v-.5547748c0-.6425873-.1863526-1.1313213-.5589713-1.4659602-.3727916-.3345582-.9175942-.5019583-1.634408-.5019583-.4906334 0-.9600138.0792651-1.4079684.2377952-.4482138.1584495-.8278305.3697961-1.1391093.6338786l-.3537848-.4754291c.3678671-.3081097.8112428-.548082 1.3301271-.7198364.5187116-.1716738 1.0613544-.257551 1.6273237-.257551.9150024 0 1.6178203.2179588 2.1085401.6537956"/><path d="m93.9403208 18.021434c.4308223-.2501043.7695134-.5985809 1.0164021-1.0455933.2467242-.4467669.3701686-.9561417.3701686-1.5281245 0-.571819-.1234444-1.0811938-.3701686-1.5282063-.2468887-.446685-.5855798-.7952434-1.0164021-1.0455114-.4307402-.2501044-.9153126-.3753202-1.4537994-.3753202s-1.0209224.1252158-1.4470601.3753202c-.4263842.250268-.7629385.5988264-1.0096628 1.0455114-.2468886.4470125-.3701686.9563873-.3701686 1.5282063 0 .5719828.12328 1.0813576.3701686 1.5281245.2467243.4470124.5832786.795489 1.0096628 1.0455933.4261377.2503499.9085733.3753202 1.4470601.3753202s1.0230592-.1249703 1.4537994-.3753202m.3635936-5.6769431c.5293641.2994541.9443245.7194592 1.2451275 1.2600152.3004744.5408834.4509581 1.1551777.4509581 1.8432101 0 .6881962-.1504837 1.3002808-.4509581 1.8364992-.300803.5361367-.7157634.9563054-1.2451275 1.2600153-.5296928.3039553-1.1220119.4557693-1.7769572.4557693-.6283168 0-1.1960621-.1496043-1.702907-.4490584-.5070916-.2992905-.8998615-.7171677-1.1778989-1.2533862v1.6488391h-.6461513v-9.9463945h.6731085v4.5441897c.2780374-.5181317.6684239-.9225871 1.1711596-1.2131206.5024069-.290288 1.0634128-.4356366 1.6826891-.4356366.6549453 0 1.2472644.149768 1.7769572.4490584"/><path d="m97 19h1v-10h-1z"/><path d="m101.118277 12.9047345c-.411699.2158622-.741264.5196175-.989038.9113466-.2478584.3918903-.3905442.8343394-.4278002 1.3273471h5.6112542c-.028092-.4930077-.16838-.933199-.420864-1.320735-.252569-.3873747-.584618-.69113-.995974-.9113466-.411699-.2199746-.874615-.3302039-1.388832-.3302039-.514389 0-.977304.1079715-1.388746.3235918zm4.867763 2.7537956h-6.2986471c.0186708.5371962.1634978 1.0148831.4348241 1.4329801.271154.4183389.638317.74185 1.101318.9707753.462916.2290865.98407.3434281 1.564063.3434281.476962 0 .918894-.0813616 1.325711-.2444073.406818-.1628038.745632-.4027762 1.017044-.7197558l.406817.4358369c-.318088.3611681-.717883.6384748-1.199469.8320816-.481757.193768-1.002997.290531-1.564148.290531-.729445 0-1.379497-.1495795-1.949812-.4489805-.570658-.2992398-1.0170435-.713305-1.3397568-1.2415505-.3227132-.5283263-.4839842-1.1313213-.4839842-1.809469 0-.6690358.1519356-1.270015.4558924-1.8027762.3038712-.5326805.7224216-.948681 1.2555666-1.2481626.53306-.2992398 1.131467-.4490612 1.795564-.4490612.663926 0 1.260192.1475636 1.788626.442449.528263.2951273.944502.7066122 1.248459 1.2349384.303871.5283262.455892 1.1271282.455892 1.796164z"/><path d="m114.941591 18.0358369c.424503-.2464232.759684-.5897708 1.005707-1.0302039.245778-.4401912.368749-.9420689.368749-1.505633 0-.5634028-.122971-1.0652805-.368749-1.5057136-.246023-.4401106-.581204-.7835388-1.005707-1.0301233-.424749-.2464232-.905252-.3697961-1.441591-.3697961-.536421 0-1.017006.1233729-1.441591.3697961-.424666.2465845-.759929.5900127-1.005707 1.0301233-.246024.4404331-.368831.9423108-.368831 1.5057136 0 .5635641.122807 1.0654418.368831 1.505633.245778.4404331.581041.7837807 1.005707 1.0302039.424585.2466651.90517.3697961 1.441591.3697961.536339 0 1.016842-.123131 1.441591-.3697961m-3.231872.5151019c-.532-.2992397-.949953-.7152401-1.253777-1.248082-.304071-.5326806-.455942-1.1335791-.455942-1.8028568 0-.6690358.151871-1.270015.455942-1.8028568.303824-.5325999.721777-.948681 1.253777-1.248082.531837-.2992398 1.128597-.4490612 1.790281-.4490612.66152 0 1.258199.1498214 1.790199.4490612.531836.299401.949789.7154821 1.253859 1.248082.303825.5328418.455942 1.133821.455942 1.8028568 0 .6692777-.152117 1.2701762-.455942 1.8028568-.30407.5328419-.722023.9488423-1.253859 1.248082-.532.2994817-1.128679.4490612-1.790199.4490612-.661684 0-1.258444-.1495795-1.790281-.4490612"/><path d="m124.267669 12.7585398c.488299.5056933.732331 1.2332773.732331 2.1825083v4.0589519h-.642437v-4.0057339c0-.7805582-.190692-1.3750565-.571682-1.7832511-.381227-.4079508-.914395-.6121293-1.599661-.6121293-.788103 0-1.408968.2440718-1.862988.7318902-.45402.4880622-.680874 1.1444722-.680874 1.9696361v3.699588h-.642358v-6.946782h.61663v1.5038361c.231246-.4878184.575996-.8694446 1.034331-1.1444721.458099-.2749463.999895-.412582 1.625232-.412582.839325 0 1.503255.2528466 1.991476.7585398"/><path d="m135 18.4797142c-.183602.1687924-.41295.2977477-.688398.3866943-.275359.0890324-.562929.1335915-.862267.1335915-.657252 0-1.164437-.1757467-1.521732-.527326-.35756-.3515792-.536296-.8413004-.536296-1.4695069v-4.7953008h-1.391307v-.604682h1.391307v-1.6031843h.724677v1.6031843h2.405765v.604682h-2.405765v4.724985c0 .4781306.118213.841558.354994 1.0898528.236692.2484665.586996.3726139 1.050736.3726139.473384 0 .864656-.1358238 1.173993-.4078148z"/><path d="m141.2676 12.6792173c.488293.5121201.7324 1.2489509.7324 2.2102457v4.110537h-.642429v-4.0566426c0-.7904784-.190689-1.3925321-.571753-1.8059144-.381143-.4131354-.914304-.6199088-1.599561-.6199088-.788171 0-1.409028.2471736-1.862964.7411918-.454093.4942649-.680864 1.1590172-.680864 1.9946681v3.7466059h-.642429v-10h.642429v4.4339033c.231164-.4851318.573714-.8601708 1.027807-1.1252818.453857-.2649465.989214-.3975843 1.605914-.3975843.839315 0 1.503314.2560601 1.99145.7681801"/><path d="m146.118277 12.9047345c-.411699.2158622-.741264.5196175-.989038.9113466-.247858.3918903-.390544.8343394-.4278 1.3273471h5.611168c-.028006-.4930077-.168294-.933199-.420778-1.320735-.252569-.3873747-.584618-.69113-.995974-.9113466-.411699-.2199746-.874615-.3302039-1.388832-.3302039-.514389 0-.977304.1079715-1.388746.3235918zm4.867677 2.7537956h-6.298561c.018671.5371962.163498 1.0148831.434824 1.4329801.271154.4183389.638317.74185 1.101318.9707753.462916.2290865.98407.3434281 1.564063.3434281.476962 0 .918894-.0813616 1.325711-.2444073.406818-.1628038.745632-.4027762 1.017044-.7197558l.406817.4358369c-.318088.3611681-.717883.6384748-1.199469.8320816-.481757.193768-1.002997.290531-1.564148.290531-.729445 0-1.379497-.1495795-1.949812-.4489805-.570658-.2992398-1.017044-.713305-1.339757-1.2415505-.322713-.5283263-.483984-1.1313213-.483984-1.809469 0-.6690358.151936-1.270015.455892-1.8027762.303872-.5326805.722422-.948681 1.255567-1.2481626.532974-.2992398 1.131381-.4490612 1.795564-.4490612.663926 0 1.260192.1475636 1.788541.442449.528348.2951273.944587.7066122 1.248544 1.2349384.303785.5283262.455892 1.1271282.455892 1.796164z"/><path d="m61.200031 34.3333249h2.609055v5.8124952c-.7635786.5973192-1.6544849 1.0556472-2.6726413 1.3749841-1.018234.3193369-2.0649267.4791958-3.1394578.4791958-1.5133543 0-2.8778235-.3229164-4.0939505-.9687492-1.2163596-.6458328-2.1709297-1.5381179-2.8636328-2.6771598-.6930133-1.1385849-1.0394036-2.4234723-1.0394036-3.8541291 0-1.4303521.3463903-2.7151633 1.0394036-3.8541291.6927031-1.1387373 1.6509178-2.0312508 2.8742564-2.6770836 1.2230284-.6458328 2.5985089-.9687492 4.1257436-.9687492 1.2442755 0 2.3758017.201442 3.3939582.6041735 1.018234.4029601 1.8736249.9931203 2.5666382 1.7707852l-1.7393183 1.6666752c-1.1316037-1.1110152-2.4960729-1.6666752-4.0939504-1.6666752-1.0466927 0-1.9763712.2155315-2.789423.6458329-.813362.4306821-1.4496903 1.0348556-1.9090627 1.8125206-.45976.7779696-.6894462 1.6666751-.6894462 2.6666497 0 .9723287.2296862 1.8473256.6894462 2.6249905.4593724.7780457 1.0957007 1.3889975 1.9090627 1.8333883.8130518.4446194 1.7357513.6666244 2.7681759.6666244 1.1593645 0 2.177521-.2499556 3.0545468-.750019z"/><path d="m74.393655 38.9232111c.6327313-.6164899.9490584-1.4277924.9490584-2.4333193 0-1.0054534-.3163271-1.8164618-.9490584-2.4332458-.6327314-.6164899-1.4340729-.9250289-2.4042558-.9250289-.9701058 0-1.7682092.308539-2.3936164.9250289-.6257926.616784-.9384962 1.4277924-.9384962 2.4332458 0 1.0055269.3127036 1.8168294.9384962 2.4333193.6254072.616784 1.4235106.9250289 2.3936164.9250289.9701829 0 1.7715244-.3082449 2.4042558-.9250289m-5.4833376 2.3729642c-.9140566-.4691675-1.627508-1.1227086-2.1405855-1.9607702-.5133859-.8376941-.7697319-1.7862475-.7697319-2.8455133 0-1.0588247.256346-2.0039965.7697319-2.8354419.5130775-.8310777 1.2265289-1.4811636 2.1405855-1.9506252.9138254-.4690939 1.9402888-.7038247 3.0790818-.7038247 1.1527476 0 2.1860725.2347308 3.1002063.7038247.9137482.4694616 1.6271996 1.1195475 2.1405855 1.9506252.5130775.8314454.769809 1.7766172.769809 2.8354419 0 1.0592658-.2567315 2.0078192-.769809 2.8455133-.5133859.8380616-1.2268373 1.4916027-2.1405855 1.9607702-.9141338.469388-1.9474587.7038247-3.1002063.7038247-1.138793 0-2.1652564-.2344367-3.0790818-.7038247"/><path d="m87.393655 38.9232111c.6327313-.6164899.9490584-1.4277924.9490584-2.4333193 0-1.0054534-.3163271-1.8164618-.9490584-2.4332458-.6327314-.6164899-1.4340729-.9250289-2.4042558-.9250289-.9701058 0-1.7682092.308539-2.3936164.9250289-.6257926.616784-.9384962 1.4277924-.9384962 2.4332458 0 1.0055269.3127036 1.8168294.9384962 2.4333193.6254072.616784 1.4235106.9250289 2.3936164.9250289.9701829 0 1.7715244-.3082449 2.4042558-.9250289m-5.4833376 2.3729642c-.9140566-.4691675-1.627508-1.1227086-2.1405855-1.9607702-.5133859-.8376941-.7697319-1.7862475-.7697319-2.8455133 0-1.0588247.256346-2.0039965.7697319-2.8354419.5130775-.8310777 1.2265289-1.4811636 2.1405855-1.9506252.9138254-.4690939 1.9402888-.7038247 3.0790818-.7038247 1.1527476 0 2.1860725.2347308 3.1002063.7038247.9137482.4694616 1.6271996 1.1195475 2.1405855 1.9506252.5130775.8314454.769809 1.7766172.769809 2.8354419 0 1.0592658-.2567315 2.0078192-.769809 2.8455133-.5133859.8380616-1.2268373 1.4916027-2.1405855 1.9607702-.9141338.469388-1.9474587.7038247-3.1002063.7038247-1.138793 0-2.1652564-.2344367-3.0790818-.7038247"/><path d="m102.477296 37.935234c.634093-.6116656.951254-1.4069334.951254-2.3859614 0-.9642672-.317161-1.7490368-.951254-2.3535982-.634399-.6046404-1.446102-.9068817-2.435568-.9068817-1.0033757 0-1.8224156.3022413-2.4563556.9068817-.6343986.6045614-.951254 1.389331-.951254 2.3535982 0 .979028.3168554 1.7742958.951254 2.3859614.63394.6119813 1.4529799.9176957 2.4563556.9176957.989466 0 1.801169-.3057144 2.435568-.9176957zm3.522704-7.805702v9.7814394c0 4.0592998-2.007057 6.0890286-6.0209403 6.0890286-1.0733801 0-2.0906647-.140346-3.052236-.4210381-.9617242-.2806921-1.7560789-.6875219-2.3833701-1.2200159l1.1708976-2.0296499c.4876639.4173282 1.1044084.7520117 1.8501573 1.0040504.7454432.251723 1.5015858.3778608 2.2681986.3778608 1.2262289 0 2.1251319-.288112 2.6968629-.8637044.571348-.5759081.857023-1.4538206.857023-2.6342902v-.6045614c-.446089.5039985-.989619.8852535-1.630591 1.1443963-.6412.259064-1.345145.3886749-2.1114517.3886749-1.0593945 0-2.0173738-.2338048-2.8746258-.7018091-.8570992-.4675307-1.5332255-1.1261625-2.0277675-1.9756585-.4948478-.8491803-.742157-1.8208674-.742157-2.9149823 0-1.0937992.2473092-2.0620921.742157-2.9042472.494542-.8420762 1.1706683-1.4932092 2.0277675-1.9541093.857252-.4605055 1.8152313-.6909161 2.8746258-.6909161.8081107 0 1.5433897.1369518 2.2055307.410224.661835.2736669 1.215759.690995 1.662077 1.2523792v-1.5330712z"/><path d="m109 42h3v-16h-3z"/><path d="m118.515563 33.7248765c-.557449.4760778-.896529 1.109476-1.017387 1.9003415h6.104474c-.107749-.7773389-.436739-1.4076494-.987265-1.89027-.550822-.4826206-1.235831-.7239677-2.054882-.7239677-.805942 0-1.487711.238186-2.04494.7138962m7.444151 3.569481h-8.441359c.147593.7911595.533882 1.4177209 1.158352 1.8802721.624618.4624777 1.400216.6937533 2.326942.6937533 1.181773 0 2.155707-.3886695 2.921289-1.166376l1.34984 1.5485027c-.483506.5765717-1.094867 1.0123637-1.833346 1.3070821-.738773.2950124-1.571449.4424083-2.498175.4424083-1.182067 0-2.223023-.2344367-3.122793-.7038247-.899918-.469094-1.595018-1.1227086-2.085152-1.9606967-.490429-.8376941-.735312-1.786321-.735312-2.8455133 0-1.0457392.238328-1.9873823.715206-2.8254439.476583-.8376941 1.138319-1.4912351 1.984473-1.9606967.84608-.4690939 1.799688-.7038247 2.860824-.7038247 1.047584 0 1.984399.2312756 2.810447.6938268.825974.4624777 1.470698 1.1129312 1.934098 1.9506252.463326.8379881.694952 1.8066845.694952 2.9058685 0 .1743756-.013478.4222654-.040286.744037"/><path d="m143.416372 34.5428495c.600603-.5142727.901016-1.2499216.901016-2.2071818 0-.9568684-.300413-1.6928307-.901016-2.2071034-.600827-.5143511-1.481407-.7714483-2.641589-.7714483h-3.112683v5.9571818h3.112683c1.160182 0 2.040762-.2571755 2.641589-.7714483m.727041-6.9000282c.921453.4285737 1.627908 1.0429592 2.119365 1.8428433.491531.8002757.737222 1.7501723.737222 2.8500031 0 1.0858088-.245691 2.0323369-.737222 2.8393495-.491457.8071693-1.197912 1.4250016-2.119365 1.8534969-.921603.428652-2.003705.6428997-3.245784.6428997h-3.235529v4.3285862h-2.6621v-15h5.897629c1.242079 0 2.324181.2142477 3.245784.6428213"/><path d="m150 42h3v-16h-3z"/><path d="m162.360848 39.7376747c.501616-.2881021.85565-.7003696 1.061874-1.236729v-1.2468005h-2.659812c-1.484575 0-2.226862.4760043-2.226862 1.4277924 0 .4558614.185647.8179187.556791 1.0858779.371068.2683267.886554.4021961 1.546381.4021961.645959 0 1.219709-.1438673 1.721628-.4323369m2.350551-7.6014396c.858891.7575636 1.288601 1.9003415 1.288601 3.4287013v6.2942839h-2.432936v-1.307082c-.316346.469388-.766482.8279166-1.350559 1.0758064-.584377.2479634-1.288676.3720553-2.113348.3720553-.824822 0-1.546457-.1376185-2.164979-.4122675-.618598-.2745755-1.096321-.6567022-1.433019-1.1462331-.336923-.4892368-.505159-1.042284-.505159-1.659068 0-.9652411.367601-1.7394924 1.103105-2.3226069.735202-.583188 1.89333-.8748187 3.474233-.8748187h2.845384v-.160849c0-.7506533-.230344-1.3272985-.690731-1.7294211-.460688-.4021961-1.144334-.6033308-2.051541-.6033308-.618598 0-1.226794.0939511-1.824739.2815593-.598021.1879022-1.103105.4493186-1.515478.7842492l-1.010319-1.8299884c.577293-.4288817 1.27134-.7572696 2.082444-.9853106.810954-.2278204 1.670147-.3419144 2.577429-.3419144 1.62168 0 2.862343.3789656 3.721612 1.1362351"/><path d="m179 31-5.008355 11.7754987c-.467609 1.1836824-1.03511 2.0168707-1.702871 2.5000125-.667981.4827687-1.475842.7244888-2.424022.7244888-.534326 0-1.061768-.0887053-1.582692-.2653699-.52085-.1769629-.948106-.4218164-1.28206-.7346301l1.001642-1.8775882c.240359.2312008.524.4148782.851435.5510323.32707.1358557.657655.2040446.991609.2040446.440804 0 .804565-.1157123 1.091794-.3469131.287084-.2314992.551024-.6192212.791383-1.1632406l.180306-.4286056-4.66781-10.9387294h2.604327l3.36561 8.0612159 3.385749-8.0612159z"/><path d="m44.3611311 27.7924501-6.7828717-3.7924501-5.5782594 5.2249231 5.0982591 4.7750769 7.262872-4.0619146c.3997912-.2232073.6388689-.624723.6388689-1.0722814 0-.4478445-.2390777-.8490027-.6388689-1.0733539"/><path d="m36 23.5013944-7.833544-4.5835189-17.166456-8.9178755 19.3892565 19z"/><path d="m11 48 17.4621058-9.0804636 7.5378942-4.1073436-5.2730396-4.8121928z"/><path d="m10.01866 10-.01866 38 20-19.0091734z"/></g></g></svg>