<svg height="57" viewBox="0 0 187 57" width="187" xmlns="http://www.w3.org/2000/svg"><g fill="none" fill-rule="evenodd"><path d="m179.77185 57h-172.54370012c-3.99197258 0-7.22814988-3.2437426-7.22814988-7.24534v-42.50970841c0-4.00120895 3.2361773-7.24495159 7.22814988-7.24495159h172.54370012c3.991973 0 7.22815 3.24374264 7.22815 7.24495159v42.50970841c0 4.0015974-3.236177 7.24534-7.22815 7.24534" fill="#17f095"/><g fill="#000"><path d="m11.4966855 22.789143c-3.00023216 5.3843074-1.0929308 13.5557475 2.224495 18.5100333 1.6561067 2.4773015 3.33268 4.7008237 5.6289997 4.7008237.0430795 0 .0866189-.0008721.1309248-.0029334 1.0789798-.0441597 1.8588562-.3880025 2.6123636-.7199531.8463353-.3731769 1.7221823-.7585631 3.095053-.7585631 1.3059518 0 2.1394859.3730976 2.9451947.7335102.7949771.355735 1.6129505.7237586 2.8220885.6999742 2.5864546-.04963 4.1747993-2.4489188 5.5760319-4.5658077 1.4623257-2.209965 2.1957498-4.3553159 2.4432652-5.1754805l.0098116-.0326639c.0472188-.1456397-.0197-.3043608-.1546874-.3688957 0 0-.0172472-.007611-.0209265-.0093552-.4555539-.1926534-4.4515198-2.0261118-4.4933728-7.0228132-.0389401-4.0598347 2.9973193-6.2094667 3.6064109-6.5991341l.0283619-.0187104c.0660757-.043684.1119913-.1132929.1276287-.1927327.0155608-.079757-.0004599-.1625266-.0451491-.2295985-2.0956399-3.1722811-5.3080499-3.6502678-6.6017372-3.7075088-.187112-.0195825-.3808164-.0293341-.5753639-.0293341-1.5189729 0-2.9743997.5930238-4.1436778 1.0701384-.8069352.3294137-1.5041787.6133991-1.9844151.6133991-.5404864 0-1.2415626-.2877909-2.0529437-.6206137-1.0859553-.4457192-2.3164031-.9508201-3.6187522-.9508201-.0311981 0-.061553.0003964-.0915247.0012685-3.0289007.0458246-5.8907726 1.8380567-7.4680791 4.6757708"/><path d="m31.646132 10.0002484c-1.9162096.0777782-4.2153727 1.2540336-5.5890714 2.858708-1.1682447 1.3481021-2.3086148 3.5970418-2.0084036 5.8635495.0189034.1419812.1351271.2509824.2779437.2625613.1295202.0098221.2611229.0149328.3928057.0149328 1.8737571 0 3.8954572-1.033875 5.2759643-2.6978812 1.4530769-1.7568769 2.1877453-4.0122848 1.9655506-6.0321222-.0176218-.1585909-.1573947-.27613654-.3147893-.2697482"/><path d="m56.7858063 18.4086033c.896605 0 1.6870397-.1650008 2.3713042-.4950809.6840951-.3298446 1.2110516-.7907007 1.5809541-1.3820974.3696484-.5913967.554642-1.2684337.554642-2.031425 0-.7628343-.1849936-1.4400283-.554642-2.0315035-.3699025-.5913967-.896859-1.0520174-1.5809541-1.3820974-.6842645-.3298446-1.4746992-.4950024-2.3713042-.4950024h-3.0785975v7.8172066zm-3.7858063-8.4086033h3.8412621c1.007601 0 1.9020047.1927887 2.6833802.5785232.7811215.3857345 1.3889333.9192789 1.8236047 1.6007902.4344173.6813543.651753 1.4550212.651753 2.3206866 0 .8658224-.2173357 1.6393323-.651753 2.3207651-.4346714.6813543-1.0424832 1.2149772-1.8236047 1.6006332-.7813755.3857345-1.6757792.5786017-2.6833802.5786017h-3.8412621z"/><path d="m67.9415666 18.035848c.4245079-.2464204.7597749-.589764 1.0058012-1.0301114.2457807-.4401862.3687529-.9421387.3687529-1.5056963 0-.5633963-.1229722-1.0652682-.3687529-1.5056156-.2460263-.4401862-.5812933-.7836104-1.0058012-1.0302727-.4246717-.2463397-.9051802-.3697918-1.4415257-.3697918-.5364273 0-1.0170996.1234521-1.4416075.3697918-.4247535.2466623-.7599387.5900865-1.0057193 1.0302727-.2460263.4403474-.3688348.9422193-.3688348 1.5056156 0 .5635576.1228085 1.0655101.3688348 1.5056963.2457806.4403474.5809658.783691 1.0057193 1.0301114.4245079.2466623.9051802.3697918 1.4416075.3697918.5363455 0 1.016854-.1231295 1.4415257-.3697918m-3.2318273.515096c-.5320062-.2992363-.9500462-.7152319-1.2537924-1.2481483-.3040738-.5325938-.4559469-1.1334854-.4559469-1.8027554 0-.6690281.1518731-1.2700003.4559469-1.802836.3037462-.5325938.7217862-.9485895 1.2537924-1.2480677.5318425-.2992362 1.1285278-.4491366 1.7903016-.4491366.6614464 0 1.2582136.1499004 1.7902198.4491366.5317606.2994782.9498006.7154739 1.2537924 1.2480677.3038282.5328357.4559469 1.1338079.4559469 1.802836 0 .66927-.1521187 1.2701616-.4559469 1.8027554-.3039918.5329164-.7220318.948912-1.2537924 1.2481483-.5320062.2994782-1.1287734.449056-1.7902198.449056-.6617738 0-1.2584591-.1495778-1.7903016-.449056"/><path d="m81 12-2.3515379 7h-.5581739l-2.0902882-6.0746901-2.1021071 6.0746901h-.5462825l-2.3516104-7h.5701379l2.0665052 6.2489942 2.1139986-6.2489942h.5106806l2.1021071 6.2356491 2.0902156-6.2356491z"/><path d="m87.2676786 12.7586211c.4882143.5056932.7323214 1.2332772.7323214 2.182427v4.0589519h-.6424285v-4.0056526c0-.7806395-.1906891-1.3750566-.5717536-1.7833324-.3811428-.4079508-.914382-.6121293-1.5995607-.6121293-.7880927 0-1.4090285.244153-1.8629643.7319715-.4540926.4880622-.6808644 1.1444721-.6808644 1.9695548v3.699588h-.6424285v-6.946782h.6167v1.5038361c.2312429-.4878184.5759109-.8693633 1.0342393-1.1444721.4580931-.2749463.9999608-.412582 1.6252893-.412582.8393144 0 1.5032357.2528466 1.99145.7586211"/><path d="m90 19h1v-10h-1z"/><path d="m97.9415906 18.035848c.424503-.2464204.7596843-.589764 1.0057076-1.0301114.2457778-.4401862.3687486-.9421387.3687486-1.5056963 0-.5633963-.1229708-1.0652682-.3687486-1.5056156-.2460233-.4401862-.5812046-.7836104-1.0057076-1.0302727-.4247485-.2463397-.9052514-.3697918-1.4415906-.3697918-.5364211 0-1.0170058.1234521-1.4415906.3697918-.4246667.2466623-.7599299.5900865-1.0057076 1.0302727-.2460234.4403474-.3688305.9422193-.3688305 1.5056156 0 .5635576.1228071 1.0655101.3688305 1.5056963.2457777.4403474.5810409.783691 1.0057076 1.0301114.4245848.2466623.9051695.3697918 1.4415906.3697918.5363392 0 1.0168421-.1231295 1.4415906-.3697918m-3.2318713.515096c-.532-.2992363-.9499532-.7152319-1.2537778-1.2481483-.3039883-.5325938-.4559415-1.1334854-.4559415-1.8027554 0-.6690281.1519532-1.2700003.4559415-1.802836.3038246-.5325938.7217778-.9485895 1.2537778-1.2480677.5318363-.2992362 1.1285965-.4491366 1.7902807-.4491366.6615205 0 1.2581988.1499004 1.7901988.4491366.5318363.2994782.9497895.7154739 1.2538597 1.2480677.3038245.5328357.4559415 1.1338079.4559415 1.802836 0 .66927-.152117 1.2701616-.4559415 1.8027554-.3040702.5329164-.7220234.948912-1.2538597 1.2481483-.532.2994782-1.1286783.449056-1.7901988.449056-.6616842 0-1.2584444-.1495778-1.7902807-.449056"/><path d="m105.323124 18.0622963c.42922-.2641601.752257-.6471761.969372-1.149048v-1.2943521h-2.518899c-.726597 0-1.252408.1233715-1.577865.3697919-.325457.2466623-.488228.5856516-.488228 1.0170485 0 .4489754.179187.8035272.537733 1.0630911.358374.2598864.863191.389628 1.514191.389628.613158 0 1.134304-.13208 1.563696-.3961594m.941121-5.4084276c.490388.4358319.735755 1.0763153.735755 1.921692v4.3716234h-.679165v-1.2283121c-.236037.40511-.580241.7198282-1.033047.9443158-.452806.2244877-.995464.3368122-1.627371.3368122-.820769 0-1.469523-.1803804-1.945829-.5415443-.476478-.360922-.714588-.8363456-.714588-1.4263515 0-.5722662.219275-1.0368041.657998-1.3934524.438637-.3564871 1.139229-.5348516 2.10143-.5348516h2.533068v-.5546878c0-.6426605-.186358-1.1313082-.558987-1.4660239-.372716-.3345543-.917621-.5019525-1.634455-.5019525-.490648 0-.960042.0793448-1.408009.2377925-.44814.1584476-.827854.3697918-1.139142.6339519l-.353795-.4755043c.367964-.3081061.811266-.5480757 1.330165-.7197475.518727-.1716718 1.061385-.2576286 1.627371-.2576286.914942 0 1.617953.2180369 2.108601.6538687"/><path d="m112.951087 18.021442c.425319-.2501023.761145-.598576 1.007641-1.0455029.24625-.4467632.369457-.9562157.369457-1.5281938 0-.5718144-.123207-1.081185-.369457-1.5281119-.246496-.4467633-.582322-.7953188-1.007641-1.0456666-.425564-.2500205-.906991-.3753172-1.444361-.3753172-.537452 0-1.01896.1252967-1.444361.3753172-.425483.2503478-.76139.5989033-1.00764 1.0456666-.246496.4469269-.369539.9562975-.369539 1.5281119 0 .5719781.123043 1.0814306.369539 1.5281938.24625.4469269.582157.7954006 1.00764 1.0455029.425401.2503478.906909.3753171 1.444361.3753171.53737 0 1.018797-.1249693 1.444361-.3753171zm2.048913-9.021442v9.946395h-.658362v-1.6488256c-.277749.5452164-.667386.9651362-1.168909 1.2600867-.501687.2948687-1.070474.4423439-1.706361.4423439-.65385 0-1.245031-.1518128-1.77346-.4557656-.528593-.3037074-.942838-.7238727-1.242817-1.2600868-.300143-.5362141-.450091-1.1481299-.450091-1.8364023 0-.6880268.149948-1.3023161.450091-1.843195.299979-.5405516.714224-.9604714 1.242817-1.2600049.528429-.299288 1.11961-.4491366 1.77346-.4491366.626863 0 1.189088.1474752 1.686182.4424257.497176.2948687.888863.7061134 1.175635 1.2332433v-4.5710778z"/><path d="m124.941591 18.035848c.424503-.2464204.759684-.589764 1.005707-1.0301114.245778-.4401862.368749-.9421387.368749-1.5056963 0-.5633963-.122971-1.0652682-.368749-1.5056156-.246023-.4401862-.581204-.7836104-1.005707-1.0302727-.424749-.2463397-.905252-.3697918-1.441591-.3697918-.536421 0-1.017006.1234521-1.441591.3697918-.424666.2466623-.759929.5900865-1.005707 1.0302727-.246024.4403474-.368831.9422193-.368831 1.5056156 0 .5635576.122807 1.0655101.368831 1.5056963.245778.4403474.581041.783691 1.005707 1.0301114.424585.2466623.90517.3697918 1.441591.3697918.536339 0 1.016842-.1231295 1.441591-.3697918m-3.231872.515096c-.532-.2992363-.949953-.7152319-1.253777-1.2481483-.304071-.5325938-.455942-1.1334854-.455942-1.8027554 0-.6690281.151871-1.2700003.455942-1.802836.303824-.5325938.721777-.9485895 1.253777-1.2480677.531837-.2992362 1.128597-.4491366 1.790281-.4491366.66152 0 1.258199.1499004 1.790199.4491366.531836.2994782.949789.7154739 1.253859 1.2480677.303825.5328357.455942 1.1338079.455942 1.802836 0 .66927-.152117 1.2701616-.455942 1.8027554-.30407.5329164-.722023.948912-1.253859 1.2481483-.532.2994782-1.128679.449056-1.790199.449056-.661684 0-1.258444-.1495778-1.790281-.449056"/><path d="m134.2676 12.7586211c.488293.5056932.7324 1.2332772.7324 2.182427v4.0589519h-.642507v-4.0056526c0-.7806395-.190611-1.3750566-.571675-1.7833324-.381221-.4079508-.914382-.6121293-1.599561-.6121293-.788171 0-1.409028.244153-1.862964.7319715-.454093.4880622-.680943 1.1444721-.680943 1.9695548v3.699588h-.64235v-6.946782h.616622v1.5038361c.231242-.4878184.575989-.8693633 1.034317-1.1444721.458093-.2749463.999961-.412582 1.625211-.412582.839315 0 1.503236.2528466 1.99145.7586211"/><path d="m145 18.4796333c-.183599.1687908-.413032.2977449-.688386.3867764-.275443.0889457-.563008.1335903-.862252.1335903-.65724 0-1.164505-.1758309-1.521793-.5274068-.357554-.3515759-.536198-.8412924-.536198-1.4694929v-4.7953409h-1.391371v-.6046763h1.391371v-1.6030831h.724575v1.6030831h2.405812v.6046763h-2.405812v4.7250257c0 .4781261.118211.84155.355076 1.0898424.236688.2484642.586986.3726963 1.050718.3726963.473376 0 .864552-.1358225 1.173972-.4078109z"/><path d="m151.2676 12.6792996c.488214.5121201.7324 1.2489509.7324 2.2101634v4.110537h-.642507v-4.0565603c0-.7905607-.190611-1.3925321-.571675-1.8059967-.381221-.4131354-.914382-.6199088-1.599561-.6199088-.788171 0-1.409028.2472559-1.862964.741274-.454093.494265-.680943 1.1590173-.680943 1.9945859v3.7466059h-.64235v-10h.64235v4.4339856c.231243-.4852141.573715-.8601709 1.027886-1.1253641.453857-.2649465.989214-.3975843 1.605914-.3975843.839315 0 1.503236.2560601 1.99145.7682624"/><path d="m155.118277 12.9047241c-.411699.2159403-.741264.5196115-.989038.9113361-.247858.3918858-.390544.8343297-.4278 1.3274124h5.611254c-.028092-.4930827-.16838-.9332688-.420864-1.3208004-.252569-.3873702-.584618-.6911221-.995974-.9113361-.411699-.2198915-.874615-.3302001-1.388832-.3302001-.514389 0-.977304.1079702-1.388746.3235881zm4.867763 2.7537639h-6.298647c.018671.53719.163498 1.0148714.434824 1.4330442.271154.4182534.638317.7418415 1.101318.9707641.462916.2290032.98407.3433435 1.564063.3433435.476962 0 .918894-.08128 1.325711-.2444045.406818-.1627213.745632-.4027715 1.017044-.7196668l.406817.4357512c-.318088.3611639-.717883.6385481-1.199469.832072-.481757.1938464-1.002997.2906083-1.564148.2906083-.729445 0-1.379497-.1496585-1.949812-.449056-.570658-.2992363-1.017044-.7132161-1.339757-1.2415362s-.483984-1.1312276-.483984-1.8093675c0-.6690281.151936-1.2700003.455892-1.802836.303872-.5325938.722422-.9486701 1.255567-1.2480677.53306-.2992362 1.131467-.4491366 1.795564-.4491366.663926 0 1.260192.1475619 1.788626.4425246.528178.2951239.944502.7065233 1.248459 1.2348435.303871.5283201.455892 1.1271958.455892 1.796224z"/><path d="m60.7510167 36.3427889-2.782648-6.5570549-2.7614851 6.5570549zm.9064618 2.1857615h-7.3781443l-1.4545865 3.4714496h-2.8247477l6.6403073-15h2.6982979l6.6613948 15h-2.8669227z"/><path d="m77.370368 38.5885588c.6276472-.6682664.941811-1.5476585.941811-2.6375535 0-1.0899727-.3141638-1.9690534-.941811-2.6376313-.6279496-.6682664-1.4285948-1.0027501-2.4020868-1.0027501-.6349815 0-1.206374.1492132-1.7142533.4468609-.5079549.298037-.91013.7230921-1.206374 1.2752432-.2963197.5524626-.4444417 1.1917586-.4444417 1.9182773 0 .7268303.148122 1.3661263.4444417 1.9181995.296244.5524627.6984191.9775178 1.206374 1.2752433.5078793.298037 1.0792718.4468608 1.7142533.4468608.973492 0 1.7741372-.3341722 2.4020868-1.0027501m.8465411-7.847477c.8677122.4942882 1.5482871 1.1918365 2.0424052 2.092645.4936645.9012757.7406857 1.9401609.7406857 3.1172785 0 1.1770398-.2470212 2.2199746-.7406857 3.1280257-.4941181.9083626-1.174693 1.609649-2.0424052 2.1035478-.8677122.4941324-1.8517897.7410818-2.9523839.7410818-1.5237135 0-2.7300875-.5231807-3.6189708-1.5694642v5.6458036h-2.6455544v-15.8692438h2.5185279v1.5259308c.4371829-.5521511.9768945-.9663034 1.619059-1.2425347.641862-.2758419 1.3508667-.4141523 2.1269383-.4141523 1.1005942 0 2.0846717.2473388 2.9523839.7410818"/><path d="m92.370368 38.5885588c.6276472-.6682664.941811-1.5476585.941811-2.6375535 0-1.0899727-.3141638-1.9690534-.941811-2.6376313-.6279496-.6682664-1.4285948-1.0027501-2.4020868-1.0027501-.6349815 0-1.206374.1492132-1.7142533.4468609-.5079549.298037-.91013.7230921-1.206374 1.2752432-.2963197.5524626-.4444417 1.1917586-.4444417 1.9182773 0 .7268303.148122 1.3661263.4444417 1.9181995.296244.5524627.6984191.9775178 1.206374 1.2752433.5078793.298037 1.0792718.4468608 1.7142533.4468608.973492 0 1.7741372-.3341722 2.4020868-1.0027501m.8465411-7.847477c.8677122.4942882 1.5482871 1.1918365 2.0424052 2.092645.4936645.9012757.7406857 1.9401609.7406857 3.1172785 0 1.1770398-.2470212 2.2199746-.7406857 3.1280257-.4941181.9083626-1.174693 1.609649-2.0424052 2.1035478-.8677122.4941324-1.8517897.7410818-2.9523839.7410818-1.5237135 0-2.7300875-.5231807-3.6189708-1.5694642v5.6458036h-2.6455544v-15.8692438h2.5185279v1.5259308c.4371829-.5521511.9768945-.9663034 1.619059-1.2425347.641862-.2758419 1.3508667-.4141523 2.1269383-.4141523 1.1005942 0 2.0846717.2473388 2.9523839.7410818"/><path d="m106.565244 41.5208949c-1.080688-.3193785-1.935667-.7428845-2.565244-1.2708155l.965954-2.1042068c.615159.472332 1.370283.8578042 2.264836 1.1561936.894169.2989103 1.79248.4479933 2.694089.4479933 1.116197 0 1.949778-.173496 2.500898-.5208602.550736-.346992.826449-.8052567.826449-1.3750173 0-.416584-.153924-.76045-.461542-1.0312258-.307924-.2708503-.69768-.4824544-1.169959-.6354078-.472278-.1526557-1.116274-.3261517-1.931986-.5207858-1.145187-.263705-2.071567-.5277078-2.779985-.7917105-.708418-.263705-1.316827-.6770885-1.824692-1.239555-.508171-.5625409-.762103-1.3229909-.762103-2.2812754 0-.8053312.225402-1.5380932.676207-2.197914.450804-.6595231 1.130385-1.1838815 2.039356-1.5729264.908665-.3887472 2.021257-.5833813 3.338161-.5833813.915644 0 1.817252.1113471 2.704826.3333714.88719.222322 1.652975.5417005 2.296893.9583589l-.880058 2.1041324c-.65849-.3749777-1.345433-.6594486-2.06083-.8541572-.715781-.1943363-1.40978-.2916162-2.082382-.2916162-1.102162 0-1.921172.1805669-2.457949.5416262-.536701.361357-.804975.840462-.804975 1.4375384 0 .416584.153617.7571006.461541 1.0207312.307618.2640028.697681.4724064 1.169959.625062.472279.1529534 1.116274.3265239 1.931986.5208602 1.11635.2499355 2.031994.5103656 2.747774.7812159.715474.2708503 1.327258.6842338 1.835429 1.239555.507864.5556934.762103 1.3056488.762103 2.2500894 0 .8056288-.225402 1.5348183-.676206 2.1874193-.450805.6530477-1.134451 1.1738335-2.050094 1.5625807-.916104.3885983-2.032301.5832324-3.348821.5832324-1.159299 0-2.279177-.1598009-3.359635-.4791051"/><path d="m126 41.2352514c-.336794.2548656-.746179.4461286-1.22832.5736373-.482142.1273569-.991187.1911113-1.526809.1911113-1.34701 0-2.387658-.3256026-3.122353-.9771872-.734696-.6512811-1.102085-1.6003101-1.102085-2.8467836v-5.4597252h-2.020433v-2.1243861h2.020433v-2.5919179h2.869882v2.5919179h3.283204v2.1243861h-3.283204v5.3960468c0 .55231.145266.9738477.436289 1.2640059.290532.2904618.711729.4355029 1.262689.4355029.642828 0 1.178531-.1556669 1.607111-.4673801z"/><path d="m135.393709 39.6435457c.632681-.6725448.949059-1.5575672.949059-2.65444 0-1.0969511-.316378-1.98166-.949059-2.6545183-.632682-.6725449-1.434138-1.00917-2.40422-1.00917-.970156 0-1.768298.3366251-2.393746 1.00917-.62575.6728583-.938511 1.5575672-.938511 2.6545183 0 1.0968728.312761 1.9818952.938511 2.65444.625448.6728584 1.42359 1.00917 2.393746 1.00917.970082 0 1.771538-.3363116 2.40422-1.00917m-5.483314 2.5886825c-.914175-.5117956-1.627627-1.2247825-2.140734-2.1389607-.513333-.9138647-.769661-1.9486637-.769661-3.1041618 0-1.1551845.256328-2.1862998.769661-3.0932675.513107-.9066541 1.226559-1.615879 2.140734-2.1279881.913797-.5117956 1.940238-.7678501 3.079094-.7678501 1.152721 0 2.186017.2560545 3.100116.7678501.913798.5121091 1.627251 1.221334 2.140659 2.1279881.513107.9069677.769736 1.938083.769736 3.0932675 0 1.1554981-.256629 2.1902971-.769736 3.1041618-.513408.9141782-1.226861 1.6271651-2.140659 2.1389607-.914099.5121091-1.947395.7677718-3.100116.7677718-1.138856 0-2.165297-.2556627-3.079094-.7677718"/><path d="m147 31v2.4240915c-.241748-.0407545-.460834-.061059-.656935-.061059-1.102635 0-1.963442.2886291-2.5825.865669-.619545.5774037-.928872 1.4090864-.928872 2.4954118v5.2758867h-2.831693v-10.8777365h2.695726v1.5889155c.815645-1.1407617 2.250187-1.711179 4.304274-1.711179"/><path d="m151.835135 33.9726273c-.608135.5193163-.977962 1.2102751-1.109875 2.0731114h6.659408c-.117466-.8480233-.476379-1.5356903-1.076976-2.0621388-.600989-.5265268-1.348182-.7897903-2.241735-.7897903-.879106 0-1.623002.2598149-2.230822.7788177m8.120973 3.8939318h-9.208784c.160965.8630714.58238 1.5465845 1.263616 2.0511662.681394.5045817 1.527522.7568725 2.53854.7568725 1.289136 0 2.351664-.4240116 3.186799-1.2724268l1.472557 1.6892279c-.527495.6289637-1.194441 1.1044681-1.999974 1.4259645-.806004.3218884-1.714398.4826366-2.725338.4826366-1.28945 0-2.425079-.2557394-3.406575-.7677668-.981809-.5118706-1.740152-1.2247745-2.274792-2.1389467-.534955-.9138588-.802157-1.9487294-.802157-3.1042199 0-1.1407559.259979-2.1681025.78025-3.0822747.519878-.9138588 1.241709-1.626841 2.164786-2.1389468.923077-.5117138 1.963305-.7678451 3.120921-.7678451 1.142853 0 2.164786.2522909 3.065956.7568726.901091.5045817 1.604392 1.2141938 2.109901 2.1279741.505431.9141723.758186 1.970988.758186 3.169977 0 .1902958-.014683.4606914-.043892.8117354"/></g></g></svg>