<svg height="32" width="32" xmlns="http://www.w3.org/2000/svg"><path d="m26.868 0c1.874 0 3.386 1.516 3.476 3.3v28.7l-3.57-3.03-1.96-1.785-2.138-1.864.893 2.94h-18.717c-1.87 0-3.387-1.42-3.387-3.301v-21.653c0-1.784 1.52-3.303 3.393-3.303h22l.01-.004zm-8.158 7.577h-.04l-.269.267c2.764.8 4.101 2.05 4.101 2.05-1.781-.891-3.386-1.337-4.992-1.517-1.16-.18-2.32-.085-3.3 0h-.266c-.627 0-1.96.267-3.747.98-.623.271-.98.448-.98.448s1.336-1.336 4.28-2.049l-.18-.18s-2.23-.085-4.636 1.693c0 0-2.407 4.192-2.407 9.36 0 0 1.334 2.32 4.991 2.408 0 0 .533-.71 1.073-1.336-2.053-.624-2.853-1.872-2.853-1.872s.179.088.447.267h.08c.04 0 .058.02.08.04v.008c.021.021.04.04.08.04.44.181.88.36 1.24.533.621.27 1.42.538 2.4.715 1.24.18 2.661.267 4.28 0 .8-.18 1.6-.356 2.4-.713.52-.267 1.16-.534 1.862-.983 0 0-.8 1.248-2.94 1.872a20.34 20.34 0 0 0 1.06 1.333c3.659-.08 5.08-2.4 5.16-2.301 0-5.16-2.42-9.36-2.42-9.36-2.18-1.619-4.22-1.68-4.58-1.68zm.224 5.884c.938 0 1.694.8 1.694 1.78 0 .987-.76 1.787-1.694 1.787-.933 0-1.693-.8-1.693-1.779.003-.986.764-1.784 1.693-1.788zm-6.057 0c.933 0 1.688.8 1.688 1.78 0 .987-.76 1.787-1.693 1.787-.934 0-1.694-.8-1.694-1.779 0-.986.76-1.784 1.699-1.788z"/></svg>