<svg viewBox="0 0 1080 1080" xmlns="http://www.w3.org/2000/svg"><path d="m1080 205.13a461.53 461.53 0 0 1 -127.58 35 220.15 220.15 0 0 0 97.41-122.38 442.52 442.52 0 0 1 -140.4 53.6 221.87 221.87 0 0 0 -161.73-70.1c-122.58 0-221.27 99.5-221.27 221.47 0 17.55 1.49 34.42 5.13 50.49-184.07-9-346.95-97.2-456.36-231.59a221.46 221.46 0 0 0 68 295.92c-35.58-.68-70.47-11-100-27.27v2.43c0 107.59 76.75 197 177.39 217.55a221.26 221.26 0 0 1 -58.05 7.29c-14.17 0-28.48-.81-41.92-3.78 28.69 87.68 110.1 152.14 206.89 154.24a444.88 444.88 0 0 1 -274.51 94.43 414.31 414.31 0 0 1 -53-3c98.08 63.25 214.31 99.36 339.66 99.36 407.43 0 630.18-337.5 630.18-630 0-9.79-.34-19.24-.81-28.62 43.97-31.27 80.86-70.17 110.97-115.04z" fill="#fff"/></svg>