<svg viewBox="0 0 1080 1080" xmlns="http://www.w3.org/2000/svg"><g fill="#fff"><path d="m742.5 0h-405c-186.37 0-337.5 151.13-337.5 337.5v405c0 186.37 151.13 337.5 337.5 337.5h405c186.37 0 337.5-151.13 337.5-337.5v-405c0-186.37-151.13-337.5-337.5-337.5zm236.25 742.5c0 130.28-106 236.25-236.25 236.25h-405c-130.27 0-236.25-106-236.25-236.25v-405c0-130.28 106-236.25 236.25-236.25h405c130.28 0 236.25 106 236.25 236.25z"/><path d="m540 270c-149.11 0-270 120.89-270 270s120.89 270 270 270 270-120.89 270-270-120.89-270-270-270zm0 438.75c-93 0-168.75-75.75-168.75-168.75s75.75-168.75 168.75-168.75 168.75 75.67 168.75 168.75-75.75 168.75-168.75 168.75z"/><circle cx="830.25" cy="249.75" r="35.98"/></g></svg>